<svg width="899" height="225" viewBox="0 0 899 225" fill="none" xmlns="http://www.w3.org/2000/svg">
<path d="M346.88 50.36C357.04 50.36 365.12 53.36 371.12 59.36C374 62.24 375.44 64.48 375.44 66.08C375.44 66.88 374.76 67.76 373.4 68.72C372.12 69.6 371.04 70.04 370.16 70.04C369.36 70.04 368.4 69.4 367.28 68.12C366.24 66.84 365.04 65.44 363.68 63.92C362.4 62.32 360.24 60.88 357.2 59.6C354.16 58.32 350.32 57.68 345.68 57.68C341.12 57.68 336.72 59.04 332.48 61.76C328.32 64.48 324.92 67.96 322.28 72.2C319.64 76.36 317.4 81.08 315.56 86.36C312.28 95.88 310.64 105.76 310.64 116C310.64 124.96 312.6 132.48 316.52 138.56C318.52 141.68 321.24 144.16 324.68 146C328.2 147.76 332.24 148.64 336.8 148.64C346.4 148.64 354.36 145.2 360.68 138.32C360.92 138.08 361.44 137.44 362.24 136.4C363.68 134.32 364.92 133.28 365.96 133.28C367 133.28 367.92 133.64 368.72 134.36C369.52 135 369.92 135.72 369.92 136.52C369.92 137.32 369.64 138.16 369.08 139.04C365.4 144.8 360.68 149.2 354.92 152.24C349.24 155.2 342.92 156.68 335.96 156.68C323.88 156.68 315.04 152.92 309.44 145.4C303.84 137.88 301.04 127.88 301.04 115.4C301.04 99.72 304.4 85.4 311.12 72.44C314.48 65.8 319.24 60.48 325.4 56.48C331.56 52.4 338.72 50.36 346.88 50.36ZM427.416 112.64L427.656 110.84C427.656 105 424.056 102.08 416.856 102.08C410.936 102.08 406.136 104.8 402.456 110.24C398.776 115.6 396.376 122.72 395.256 131.6L392.496 153.68C392.256 155.68 390.376 156.68 386.856 156.68C385.656 156.68 384.816 156.52 384.336 156.2C383.856 155.88 383.616 155.24 383.616 154.28L395.856 51.68C396.176 49.6 397.736 48.56 400.536 48.56C403.416 48.56 404.856 49.4 404.856 51.08L398.616 105.08C403.736 97.8 410.216 94.16 418.056 94.16C424.136 94.16 428.776 95.6 431.976 98.48C435.256 101.28 436.896 105.16 436.896 110.12C436.896 110.84 435.056 125.36 431.376 153.68C431.136 155.68 429.176 156.68 425.496 156.68C423.416 156.68 422.376 155.88 422.376 154.28L427.416 112.64ZM457.696 140.24C457.696 142.64 458.496 144.68 460.096 146.36C461.776 147.96 463.976 148.76 466.696 148.76C471.656 148.76 475.856 146.28 479.296 141.32C482.736 136.28 484.976 130.6 486.016 124.28C475.776 125.08 468.496 126.84 464.176 129.56C459.856 132.28 457.696 135.84 457.696 140.24ZM497.416 107.96C497.416 110.12 496.656 115.48 495.136 124.04C493.696 132.52 492.976 138.36 492.976 141.56C492.976 144.76 493.176 147.4 493.576 149.48C494.056 151.56 494.296 152.84 494.296 153.32C494.296 154.28 493.496 155.08 491.896 155.72C490.296 156.36 488.776 156.68 487.336 156.68C485.576 156.68 484.696 153.08 484.696 145.88V142.76C482.376 147.32 479.296 150.8 475.456 153.2C471.616 155.52 467.576 156.68 463.336 156.68C459.096 156.68 455.496 155.4 452.536 152.84C449.656 150.28 448.216 146.68 448.216 142.04C448.216 135.4 451.256 129.8 457.336 125.24C463.496 120.68 473.576 117.96 487.576 117.08C487.976 114.68 488.176 112.2 488.176 109.64C488.176 104.68 484.496 102.2 477.136 102.2C473.456 102.2 469.696 102.96 465.856 104.48C462.096 106 460.136 106.76 459.976 106.76C458.936 106.76 458.096 106.16 457.456 104.96C456.816 103.68 456.496 102.36 456.496 101C456.496 99.64 458.976 98.16 463.936 96.56C468.896 94.96 473.816 94.16 478.696 94.16C483.576 94.16 487.896 95.28 491.656 97.52C495.496 99.68 497.416 103.16 497.416 107.96ZM545.293 102.08C539.453 102.08 534.613 105 530.773 110.84C527.013 116.6 524.653 123.52 523.693 131.6L520.933 153.68C520.693 155.68 518.813 156.68 515.293 156.68C514.093 156.68 513.253 156.52 512.773 156.2C512.293 155.88 512.053 155.24 512.053 154.28L518.893 97.16C519.133 95.16 520.693 94.16 523.573 94.16C526.453 94.16 527.893 94.96 527.893 96.56L526.693 105.56H527.293C529.533 101.88 532.453 98.92 536.053 96.68C539.653 94.44 543.413 93.32 547.333 93.32C549.653 93.32 550.813 94.16 550.813 95.84C550.813 97.52 550.453 98.84 549.733 99.8C548.693 101.32 547.213 102.08 545.293 102.08ZM560.528 156.68C559.328 156.68 558.488 156.52 558.008 156.2C557.528 155.88 557.288 155.24 557.288 154.28L564.128 97.16C564.368 95.16 565.928 94.16 568.808 94.16C571.688 94.16 573.128 94.96 573.128 96.56L566.168 153.68C565.928 155.68 564.048 156.68 560.528 156.68ZM577.928 71.96C577.928 76.92 575.648 79.4 571.088 79.4C567.488 79.4 565.688 77.88 565.688 74.84C565.688 69.96 567.968 67.52 572.528 67.52C576.128 67.52 577.928 69 577.928 71.96ZM590.065 95.84H597.145L599.305 77.36C599.465 76.16 600.225 75.2 601.585 74.48C602.945 73.76 604.265 73.4 605.545 73.4C606.825 73.4 607.625 73.48 607.945 73.64C608.265 73.8 608.425 74.2 608.425 74.84L605.905 95.84H617.065C618.905 95.84 619.825 97.04 619.825 99.44C619.825 100.48 619.465 101.48 618.745 102.44C618.025 103.4 617.185 103.88 616.225 103.88H604.825L601.705 130.16C601.305 133.36 601.105 136.48 601.105 139.52C601.105 142.56 601.425 145.52 602.065 148.4C602.785 151.28 603.145 152.92 603.145 153.32C603.145 154.28 602.385 155.08 600.865 155.72C599.425 156.36 598.025 156.68 596.665 156.68C595.385 156.68 594.305 155.12 593.425 152C592.625 148.8 592.225 145.52 592.225 142.16C592.225 138.72 592.465 134.72 592.945 130.16L596.065 103.88H589.225C587.465 103.88 586.585 102.72 586.585 100.4C586.585 99.28 586.905 98.24 587.545 97.28C588.265 96.32 589.105 95.84 590.065 95.84ZM664.748 63.92L638.348 120.68H676.148L664.748 63.92ZM659.348 53.84C660.388 51.52 662.628 50.36 666.068 50.36C669.588 50.36 671.588 51.52 672.068 53.84C685.908 120.32 692.828 153.6 692.828 153.68C692.828 155.68 691.308 156.68 688.268 156.68C685.228 156.68 683.468 155.52 682.988 153.2L677.708 128H634.868L626.948 145.4C626.468 146.68 625.948 147.84 625.388 148.88C624.908 149.92 624.508 150.8 624.188 151.52C623.868 152.16 623.588 152.68 623.348 153.08C623.188 153.4 622.948 153.8 622.628 154.28C622.388 154.76 622.148 155.12 621.908 155.36C621.668 155.6 621.428 155.84 621.188 156.08C620.788 156.48 620.068 156.68 619.028 156.68C617.988 156.68 616.908 156.36 615.788 155.72C614.588 155.08 613.988 154.12 613.988 152.84C613.988 151.56 615.948 146.72 619.868 138.32L659.348 53.84ZM723.091 149.24C729.411 149.24 734.811 147.64 739.291 144.44C743.851 141.16 747.091 137.28 749.011 132.8C751.011 128.32 752.011 123.72 752.011 119C752.011 114.2 750.891 110.2 748.651 107C746.491 103.72 743.571 102.08 739.891 102.08C729.171 102.08 722.571 112.16 720.091 132.32L718.051 149C719.171 149.16 720.851 149.24 723.091 149.24ZM721.051 51.68C721.291 49.6 722.851 48.56 725.731 48.56C728.611 48.56 730.051 49.4 730.051 51.08L723.451 104.12C726.251 100.68 729.131 98.16 732.091 96.56C735.051 94.96 738.611 94.16 742.771 94.16C748.691 94.16 753.331 96.44 756.691 101C760.131 105.56 761.851 111.2 761.851 117.92C761.851 127.44 758.571 136.12 752.011 143.96C748.811 147.72 744.491 150.8 739.051 153.2C733.611 155.52 727.211 156.68 719.851 156.68C712.491 156.68 708.811 154.96 708.811 151.52L721.051 51.68ZM778.028 156.68C776.828 156.68 775.988 156.52 775.508 156.2C775.028 155.88 774.788 155.24 774.788 154.28L787.028 51.68C787.348 49.6 788.908 48.56 791.708 48.56C794.588 48.56 796.028 49.4 796.028 51.08L783.668 153.68C783.428 155.68 781.548 156.68 778.028 156.68ZM841.165 107.6C841.165 105.6 840.525 104.08 839.245 103.04C838.045 101.92 836.445 101.36 834.445 101.36C830.125 101.36 825.645 103.36 821.005 107.36C816.365 111.28 813.485 116.56 812.365 123.2C819.805 123.2 826.445 121.72 832.285 118.76C838.205 115.8 841.165 112.08 841.165 107.6ZM802.165 130.16C802.165 124.32 803.245 119 805.405 114.2C807.565 109.4 810.285 105.6 813.565 102.8C820.445 97.04 827.565 94.16 834.925 94.16C839.325 94.16 842.925 95.24 845.725 97.4C848.525 99.48 849.925 102.48 849.925 106.4C849.925 113.44 846.245 119.2 838.885 123.68C831.605 128.08 822.605 130.28 811.885 130.28C811.885 136.28 813.285 140.96 816.085 144.32C818.885 147.6 822.925 149.24 828.205 149.24C830.685 149.24 833.085 148.72 835.405 147.68C837.725 146.64 839.565 145.56 840.925 144.44L842.965 142.88C843.845 142.88 844.605 143.48 845.245 144.68C845.885 145.88 846.205 147.08 846.205 148.28C846.205 149.72 844.085 151.48 839.845 153.56C835.685 155.64 831.645 156.68 827.725 156.68C819.405 156.68 813.045 154.4 808.645 149.84C804.325 145.2 802.165 138.64 802.165 130.16Z" fill="white"/>
<path d="M320.4 190.376C320.315 191.293 320.272 192.147 320.272 192.936C320.272 193.704 320.368 194.472 320.56 195.24C320.752 196.008 320.848 196.445 320.848 196.552C320.848 196.808 320.645 197.021 320.24 197.192C319.835 197.363 319.504 197.448 319.248 197.448C318.992 197.448 318.8 197.352 318.672 197.16C318.565 196.968 318.469 196.712 318.384 196.392C318.32 196.051 318.267 195.731 318.224 195.432C318.203 195.112 318.171 194.781 318.128 194.44C318.107 194.077 318.085 193.843 318.064 193.736C317.573 194.888 316.784 195.795 315.696 196.456C314.629 197.117 313.456 197.448 312.176 197.448C310.896 197.448 309.765 196.957 308.784 195.976C307.824 194.995 307.344 193.555 307.344 191.656C307.344 189.608 307.835 187.72 308.816 185.992C309.392 184.989 310.107 184.115 310.96 183.368C311.835 182.6 312.976 181.981 314.384 181.512C315.792 181.021 317.381 180.776 319.152 180.776L320.592 169.352C320.613 168.861 321.104 168.616 322.064 168.616C322.661 168.616 322.96 168.861 322.96 169.352L320.4 190.376ZM318.16 182.76C315.813 182.76 313.861 183.603 312.304 185.288C310.747 186.973 309.968 189 309.968 191.368C309.968 192.499 310.235 193.448 310.768 194.216C311.301 194.963 312.08 195.336 313.104 195.336C315.963 195.336 317.723 192.648 318.384 187.272L318.928 182.856C318.779 182.792 318.523 182.76 318.16 182.76ZM350.073 180.776C352.057 180.776 353.593 181.469 354.681 182.856C355.79 184.243 356.345 185.939 356.345 187.944C356.345 190.589 355.555 192.84 353.977 194.696C352.419 196.531 350.393 197.448 347.897 197.448C345.913 197.448 344.377 196.776 343.289 195.432C342.222 194.067 341.667 192.381 341.625 190.376C341.625 188.051 342.275 185.917 343.577 183.976C344.238 183.016 345.123 182.248 346.233 181.672C347.363 181.075 348.643 180.776 350.073 180.776ZM346.681 183.944C345.785 184.712 345.145 185.64 344.761 186.728C344.377 187.795 344.185 189.032 344.185 190.44C344.185 191.827 344.515 193.011 345.177 193.992C345.838 194.973 346.905 195.464 348.377 195.464C349.87 195.464 351.161 194.749 352.249 193.32C353.337 191.891 353.881 190.28 353.881 188.488C353.881 186.696 353.539 185.299 352.857 184.296C352.174 183.272 351.193 182.76 349.913 182.76C348.654 182.76 347.577 183.155 346.681 183.944ZM388.214 185.704L388.278 185.224C388.278 183.667 387.318 182.888 385.398 182.888C383.82 182.888 382.54 183.613 381.558 185.064C380.577 186.493 379.937 188.392 379.638 190.76L378.902 196.648C378.838 197.181 378.337 197.448 377.398 197.448C377.078 197.448 376.854 197.405 376.726 197.32C376.598 197.235 376.534 197.064 376.534 196.808L378.358 181.576C378.422 181.043 378.838 180.776 379.606 180.776C380.374 180.776 380.758 180.989 380.758 181.416L380.47 183.656H380.662C381.985 181.736 383.67 180.776 385.718 180.776C387.34 180.776 388.577 181.16 389.43 181.928C390.305 182.675 390.742 183.709 390.742 185.032C390.742 185.224 390.252 189.096 389.27 196.648C389.206 197.181 388.684 197.448 387.702 197.448C387.148 197.448 386.87 197.235 386.87 196.808L388.214 185.704ZM413.249 193.064C413.249 193.704 413.462 194.248 413.889 194.696C414.337 195.123 414.924 195.336 415.649 195.336C416.972 195.336 418.092 194.675 419.009 193.352C419.926 192.008 420.524 190.493 420.801 188.808C418.07 189.021 416.129 189.491 414.977 190.216C413.825 190.941 413.249 191.891 413.249 193.064ZM423.841 184.456C423.841 185.032 423.638 186.461 423.233 188.744C422.849 191.005 422.657 192.563 422.657 193.416C422.657 194.269 422.71 194.973 422.817 195.528C422.945 196.083 423.009 196.424 423.009 196.552C423.009 196.808 422.796 197.021 422.369 197.192C421.942 197.363 421.537 197.448 421.153 197.448C420.684 197.448 420.449 196.488 420.449 194.568V193.736C419.83 194.952 419.009 195.88 417.985 196.52C416.961 197.139 415.884 197.448 414.753 197.448C413.622 197.448 412.662 197.107 411.873 196.424C411.105 195.741 410.721 194.781 410.721 193.544C410.721 191.773 411.532 190.28 413.153 189.064C414.796 187.848 417.484 187.123 421.217 186.888C421.324 186.248 421.377 185.587 421.377 184.904C421.377 183.581 420.396 182.92 418.433 182.92C417.452 182.92 416.449 183.123 415.425 183.528C414.422 183.933 413.9 184.136 413.857 184.136C413.58 184.136 413.356 183.976 413.185 183.656C413.014 183.315 412.929 182.963 412.929 182.6C412.929 182.237 413.59 181.843 414.913 181.416C416.236 180.989 417.548 180.776 418.849 180.776C420.15 180.776 421.302 181.075 422.305 181.672C423.329 182.248 423.841 183.176 423.841 184.456ZM445.632 181.224H447.52L448.096 176.296C448.139 175.976 448.342 175.72 448.704 175.528C449.067 175.336 449.419 175.24 449.76 175.24C450.102 175.24 450.315 175.261 450.4 175.304C450.486 175.347 450.528 175.453 450.528 175.624L449.856 181.224H452.832C453.323 181.224 453.568 181.544 453.568 182.184C453.568 182.461 453.472 182.728 453.28 182.984C453.088 183.24 452.864 183.368 452.608 183.368H449.568L448.736 190.376C448.63 191.229 448.576 192.061 448.576 192.872C448.576 193.683 448.662 194.472 448.832 195.24C449.024 196.008 449.12 196.445 449.12 196.552C449.12 196.808 448.918 197.021 448.512 197.192C448.128 197.363 447.755 197.448 447.392 197.448C447.051 197.448 446.763 197.032 446.528 196.2C446.315 195.347 446.208 194.472 446.208 193.576C446.208 192.659 446.272 191.592 446.4 190.376L447.232 183.368H445.408C444.939 183.368 444.704 183.059 444.704 182.44C444.704 182.141 444.79 181.864 444.96 181.608C445.152 181.352 445.376 181.224 445.632 181.224ZM481.74 184.36C481.74 183.827 481.569 183.421 481.228 183.144C480.908 182.845 480.481 182.696 479.948 182.696C478.796 182.696 477.601 183.229 476.364 184.296C475.126 185.341 474.358 186.749 474.06 188.52C476.044 188.52 477.814 188.125 479.372 187.336C480.95 186.547 481.74 185.555 481.74 184.36ZM471.34 190.376C471.34 188.819 471.628 187.4 472.204 186.12C472.78 184.84 473.505 183.827 474.38 183.08C476.214 181.544 478.113 180.776 480.076 180.776C481.249 180.776 482.209 181.064 482.956 181.64C483.702 182.195 484.076 182.995 484.076 184.04C484.076 185.917 483.094 187.453 481.132 188.648C479.19 189.821 476.79 190.408 473.932 190.408C473.932 192.008 474.305 193.256 475.052 194.152C475.798 195.027 476.876 195.464 478.284 195.464C478.945 195.464 479.585 195.325 480.204 195.048C480.822 194.771 481.313 194.483 481.676 194.184L482.22 193.768C482.454 193.768 482.657 193.928 482.828 194.248C482.998 194.568 483.084 194.888 483.084 195.208C483.084 195.592 482.518 196.061 481.388 196.616C480.278 197.171 479.201 197.448 478.156 197.448C475.937 197.448 474.241 196.84 473.068 195.624C471.916 194.387 471.34 192.637 471.34 190.376ZM537.619 183.368H534.419L532.499 199.912C532.072 203.859 530.867 206.344 528.883 207.368C528.093 207.795 527.133 208.008 526.003 208.008C524.872 208.008 523.805 207.763 522.803 207.272C521.779 206.803 521.267 206.376 521.267 205.992C521.267 205.715 521.416 205.395 521.715 205.032C521.992 204.669 522.269 204.488 522.547 204.488C522.568 204.488 522.717 204.595 522.995 204.808C523.272 205.043 523.688 205.267 524.243 205.48C524.797 205.715 525.384 205.832 526.003 205.832C526.6 205.832 527.08 205.768 527.443 205.64C527.827 205.512 528.179 205.245 528.499 204.84C528.819 204.435 529.075 203.965 529.267 203.432C529.48 202.92 529.693 202.163 529.907 201.16C530.184 199.773 530.536 197.277 530.963 193.672L532.147 183.368H529.587C529.309 183.368 529.096 183.272 528.947 183.08C528.797 182.888 528.723 182.664 528.723 182.408C528.723 182.131 528.829 181.864 529.043 181.608C529.256 181.352 529.48 181.224 529.715 181.224H532.403L532.819 177.576C533.181 174.227 533.896 171.891 534.963 170.568C535.944 169.373 537.309 168.776 539.059 168.776C540.019 168.776 540.936 168.893 541.811 169.128C542.685 169.363 543.123 169.619 543.123 169.896C543.123 170.216 543.005 170.579 542.771 170.984C542.536 171.389 542.28 171.592 542.003 171.592C541.981 171.592 541.853 171.539 541.619 171.432C540.915 171.133 540.157 170.984 539.347 170.984C538.557 170.984 537.928 171.133 537.459 171.432C537.011 171.731 536.659 172.072 536.403 172.456C536.168 172.84 535.955 173.395 535.763 174.12C535.528 174.973 535.315 176.2 535.123 177.8L534.707 181.224H537.843C538.333 181.224 538.579 181.544 538.579 182.184C538.579 182.461 538.483 182.728 538.291 182.984C538.099 183.24 537.875 183.368 537.619 183.368ZM564.949 180.776C566.933 180.776 568.469 181.469 569.557 182.856C570.666 184.243 571.221 185.939 571.221 187.944C571.221 190.589 570.432 192.84 568.853 194.696C567.296 196.531 565.269 197.448 562.773 197.448C560.789 197.448 559.253 196.776 558.165 195.432C557.098 194.067 556.544 192.381 556.501 190.376C556.501 188.051 557.152 185.917 558.453 183.976C559.114 183.016 560 182.248 561.109 181.672C562.24 181.075 563.52 180.776 564.949 180.776ZM561.557 183.944C560.661 184.712 560.021 185.64 559.637 186.728C559.253 187.795 559.061 189.032 559.061 190.44C559.061 191.827 559.392 193.011 560.053 193.992C560.714 194.973 561.781 195.464 563.253 195.464C564.746 195.464 566.037 194.749 567.125 193.32C568.213 191.891 568.757 190.28 568.757 188.488C568.757 186.696 568.416 185.299 567.733 184.296C567.05 183.272 566.069 182.76 564.789 182.76C563.53 182.76 562.453 183.155 561.557 183.944ZM600.274 182.888C598.717 182.888 597.426 183.667 596.402 185.224C595.4 186.76 594.77 188.605 594.514 190.76L593.778 196.648C593.714 197.181 593.213 197.448 592.274 197.448C591.954 197.448 591.73 197.405 591.602 197.32C591.474 197.235 591.41 197.064 591.41 196.808L593.234 181.576C593.298 181.043 593.714 180.776 594.482 180.776C595.25 180.776 595.634 180.989 595.634 181.416L595.314 183.816H595.474C596.072 182.835 596.85 182.045 597.81 181.448C598.77 180.851 599.773 180.552 600.818 180.552C601.437 180.552 601.746 180.776 601.746 181.224C601.746 181.672 601.65 182.024 601.458 182.28C601.181 182.685 600.786 182.888 600.274 182.888ZM654.362 180.776C655.535 180.776 656.538 181 657.37 181.448C658.202 181.896 658.618 182.312 658.618 182.696C658.618 183.016 658.49 183.325 658.234 183.624C657.999 183.901 657.786 184.04 657.594 184.04C657.402 184.04 657.188 183.933 656.954 183.72C656.25 183.08 655.375 182.76 654.33 182.76C653.284 182.76 652.367 182.984 651.578 183.432C650.81 183.88 650.212 184.477 649.786 185.224C648.911 186.739 648.474 188.381 648.474 190.152C648.474 191.901 648.836 193.224 649.562 194.12C650.308 195.016 651.386 195.464 652.794 195.464C653.434 195.464 654.063 195.325 654.682 195.048C655.322 194.771 655.823 194.493 656.186 194.216C656.548 193.917 656.74 193.768 656.762 193.768C656.996 193.768 657.188 193.928 657.338 194.248C657.508 194.568 657.594 194.888 657.594 195.208C657.594 195.592 657.028 196.061 655.898 196.616C654.788 197.171 653.711 197.448 652.666 197.448C650.447 197.448 648.751 196.829 647.578 195.592C646.426 194.333 645.85 192.509 645.85 190.12C645.85 187.709 646.628 185.555 648.186 183.656C649.743 181.736 651.802 180.776 654.362 180.776ZM689.627 185.704L689.691 185.224C689.691 183.667 688.731 182.888 686.811 182.888C685.232 182.888 683.952 183.613 682.971 185.064C681.989 186.493 681.349 188.392 681.051 190.76L680.315 196.648C680.251 197.181 679.749 197.448 678.811 197.448C678.491 197.448 678.267 197.405 678.139 197.32C678.011 197.235 677.947 197.064 677.947 196.808L681.211 169.448C681.296 168.893 681.712 168.616 682.459 168.616C683.227 168.616 683.611 168.84 683.611 169.288L681.947 183.688C683.312 181.747 685.04 180.776 687.131 180.776C688.752 180.776 689.989 181.16 690.843 181.928C691.717 182.675 692.155 183.709 692.155 185.032C692.155 185.224 691.664 189.096 690.683 196.648C690.619 197.181 690.096 197.448 689.115 197.448C688.56 197.448 688.283 197.235 688.283 196.808L689.627 185.704ZM714.661 193.064C714.661 193.704 714.875 194.248 715.301 194.696C715.749 195.123 716.336 195.336 717.061 195.336C718.384 195.336 719.504 194.675 720.421 193.352C721.339 192.008 721.936 190.493 722.213 188.808C719.483 189.021 717.541 189.491 716.389 190.216C715.237 190.941 714.661 191.891 714.661 193.064ZM725.253 184.456C725.253 185.032 725.051 186.461 724.645 188.744C724.261 191.005 724.069 192.563 724.069 193.416C724.069 194.269 724.123 194.973 724.229 195.528C724.357 196.083 724.421 196.424 724.421 196.552C724.421 196.808 724.208 197.021 723.781 197.192C723.355 197.363 722.949 197.448 722.565 197.448C722.096 197.448 721.861 196.488 721.861 194.568V193.736C721.243 194.952 720.421 195.88 719.397 196.52C718.373 197.139 717.296 197.448 716.165 197.448C715.035 197.448 714.075 197.107 713.285 196.424C712.517 195.741 712.133 194.781 712.133 193.544C712.133 191.773 712.944 190.28 714.565 189.064C716.208 187.848 718.896 187.123 722.629 186.888C722.736 186.248 722.789 185.587 722.789 184.904C722.789 183.581 721.808 182.92 719.845 182.92C718.864 182.92 717.861 183.123 716.837 183.528C715.835 183.933 715.312 184.136 715.269 184.136C714.992 184.136 714.768 183.976 714.597 183.656C714.427 183.315 714.341 182.963 714.341 182.6C714.341 182.237 715.003 181.843 716.325 181.416C717.648 180.989 718.96 180.776 720.261 180.776C721.563 180.776 722.715 181.075 723.717 181.672C724.741 182.248 725.253 183.176 725.253 184.456ZM757.797 185.704L757.861 185.224C757.861 183.667 756.901 182.888 754.981 182.888C753.402 182.888 752.122 183.613 751.141 185.064C750.159 186.493 749.519 188.392 749.221 190.76L748.485 196.648C748.421 197.181 747.919 197.448 746.981 197.448C746.661 197.448 746.437 197.405 746.309 197.32C746.181 197.235 746.117 197.064 746.117 196.808L747.941 181.576C748.005 181.043 748.421 180.776 749.189 180.776C749.957 180.776 750.341 180.989 750.341 181.416L750.053 183.656H750.245C751.567 181.736 753.253 180.776 755.301 180.776C756.922 180.776 758.159 181.16 759.013 181.928C759.887 182.675 760.325 183.709 760.325 185.032C760.325 185.224 759.834 189.096 758.853 196.648C758.789 197.181 758.266 197.448 757.285 197.448C756.73 197.448 756.453 197.235 756.453 196.808L757.797 185.704ZM791.247 182.76C788.901 182.76 786.949 183.603 785.391 185.288C783.834 186.973 783.055 189 783.055 191.368C783.055 192.499 783.322 193.448 783.855 194.216C784.389 194.963 785.167 195.336 786.191 195.336C789.05 195.336 790.81 192.648 791.471 187.272L792.015 182.856C791.866 182.792 791.61 182.76 791.247 182.76ZM790.575 194.792C789.871 195.752 789.125 196.435 788.335 196.84C787.546 197.245 786.511 197.448 785.231 197.448C783.973 197.448 782.853 196.957 781.871 195.976C780.911 194.995 780.431 193.555 780.431 191.656C780.431 189.608 780.922 187.72 781.903 185.992C782.479 184.989 783.194 184.115 784.047 183.368C784.922 182.6 786.063 181.981 787.471 181.512C788.879 181.021 790.394 180.776 792.015 180.776C793.658 180.776 794.479 181.245 794.479 182.184L792.239 199.912C791.919 202.472 791.205 204.456 790.095 205.864C789.007 207.272 787.258 207.976 784.847 207.976C783.93 207.976 783.013 207.859 782.095 207.624C781.178 207.389 780.463 207.123 779.951 206.824C779.439 206.525 779.183 206.227 779.183 205.928C779.183 205.651 779.269 205.299 779.439 204.872C779.631 204.467 779.866 204.264 780.143 204.264C780.165 204.264 780.25 204.317 780.399 204.424C780.57 204.552 780.794 204.691 781.071 204.84C781.349 205.011 781.669 205.171 782.031 205.32C782.885 205.725 783.887 205.928 785.039 205.928C786.213 205.928 787.162 205.619 787.887 205C788.613 204.381 789.178 203.293 789.583 201.736C789.989 200.2 790.319 197.885 790.575 194.792ZM824.925 184.36C824.925 183.827 824.754 183.421 824.413 183.144C824.093 182.845 823.666 182.696 823.133 182.696C821.981 182.696 820.786 183.229 819.549 184.296C818.311 185.341 817.543 186.749 817.245 188.52C819.229 188.52 820.999 188.125 822.557 187.336C824.135 186.547 824.925 185.555 824.925 184.36ZM814.525 190.376C814.525 188.819 814.813 187.4 815.389 186.12C815.965 184.84 816.69 183.827 817.565 183.08C819.399 181.544 821.298 180.776 823.261 180.776C824.434 180.776 825.394 181.064 826.141 181.64C826.887 182.195 827.261 182.995 827.261 184.04C827.261 185.917 826.279 187.453 824.317 188.648C822.375 189.821 819.975 190.408 817.117 190.408C817.117 192.008 817.49 193.256 818.237 194.152C818.983 195.027 820.061 195.464 821.469 195.464C822.13 195.464 822.77 195.325 823.389 195.048C824.007 194.771 824.498 194.483 824.861 194.184L825.405 193.768C825.639 193.768 825.842 193.928 826.013 194.248C826.183 194.568 826.269 194.888 826.269 195.208C826.269 195.592 825.703 196.061 824.573 196.616C823.463 197.171 822.386 197.448 821.341 197.448C819.122 197.448 817.426 196.84 816.253 195.624C815.101 194.387 814.525 192.637 814.525 190.376ZM855.355 193.096C855.355 194.248 854.907 195.261 854.011 196.136C853.115 197.011 851.973 197.448 850.587 197.448C849.2 197.448 847.984 197.213 846.939 196.744C845.893 196.275 845.371 195.859 845.371 195.496C845.371 195.133 845.445 194.792 845.595 194.472C845.765 194.131 846 193.96 846.299 193.96C846.32 193.96 846.491 194.088 846.811 194.344C847.152 194.579 847.632 194.824 848.251 195.08C848.869 195.336 849.52 195.464 850.203 195.464C850.885 195.464 851.504 195.293 852.059 194.952C852.635 194.611 852.923 194.12 852.923 193.48C852.923 192.819 852.72 192.221 852.315 191.688C851.931 191.133 851.451 190.643 850.875 190.216C850.299 189.768 849.723 189.32 849.147 188.872C848.571 188.403 848.08 187.848 847.675 187.208C847.291 186.547 847.099 185.843 847.099 185.096C847.099 183.944 847.525 182.941 848.379 182.088C849.253 181.213 850.288 180.776 851.483 180.776C852.677 180.776 853.637 180.936 854.363 181.256C855.088 181.555 855.451 181.875 855.451 182.216C855.451 182.557 855.365 182.888 855.195 183.208C855.045 183.528 854.843 183.688 854.587 183.688C854.565 183.688 854.437 183.613 854.203 183.464C853.456 182.995 852.677 182.76 851.867 182.76C851.056 182.76 850.437 182.952 850.011 183.336C849.605 183.699 849.403 184.179 849.403 184.776C849.403 185.373 849.605 185.928 850.011 186.44C850.416 186.952 850.907 187.432 851.483 187.88C852.08 188.328 852.667 188.797 853.243 189.288C853.84 189.757 854.341 190.323 854.747 190.984C855.152 191.645 855.355 192.349 855.355 193.096Z" fill="white"/>
<rect width="225" height="7.00001" transform="matrix(-4.37114e-08 1 1 4.37114e-08 257 0)" fill="white"/>
<path d="M217.654 122.274H183.417C179.366 122.274 176.081 125.559 176.081 129.611C176.081 129.651 176.038 129.676 176.003 129.657C169.049 125.83 161.354 123.466 153.478 122.601C150.481 122.272 147.6 121.228 145.144 119.478C138.289 114.595 127.024 107.987 112.793 104.718C107.145 103.421 102.716 98.6519 102.716 92.8565C102.716 78.2272 121.31 73.3646 135.939 73.3646H139.398C159.625 73.3646 176.081 56.9087 176.081 36.6825V7.33677C176.081 3.2852 172.796 0.000439433 168.745 0.000439433H139.399C119.172 0.000439433 102.717 16.4563 102.717 36.6825V60.4305C102.717 62.0691 101.356 64.3449 100.196 65.5022C97.2878 68.4031 93.4693 68.3994 90.5613 65.4985C89.4013 64.3413 88.044 62.0691 88.044 60.4305V36.6821C88.044 16.4554 71.5881 0 51.3619 0H22.0148C17.9632 0 14.6785 3.28476 14.6785 7.33633V36.6821C14.6785 56.9087 31.1344 73.3642 51.3606 73.3642H54.819C69.4487 73.3642 88.0427 78.2263 88.0427 92.8561C88.0427 98.6053 83.617 103.33 77.9801 104.461C72.2343 105.613 66.472 107.341 61.0016 109.628C45.3347 116.176 20.495 116.507 7.64757 127.611C7.2393 127.963 6.84071 128.334 6.45274 128.722C-2.15047 137.324 -2.15135 151.242 6.45274 159.845L50.4716 203.864C54.6291 208.022 60.1558 210.312 66.0332 210.312H168.744C172.795 210.312 176.08 213.597 176.08 217.648C176.08 221.7 179.365 224.985 183.416 224.985H217.653C221.705 224.985 224.989 221.7 224.989 217.648V129.611C224.99 125.559 221.705 122.274 217.654 122.274ZM117.389 36.6821C117.389 24.5463 127.262 14.6727 139.398 14.6727C151.554 14.6727 161.408 24.5266 161.408 36.6821C161.408 48.8179 151.534 58.6915 139.398 58.6915C135.105 58.6915 132.955 53.5008 135.991 50.4651L144.586 41.8696C147.451 39.0045 147.451 34.3597 144.586 31.4946C141.722 28.6295 137.076 28.6295 134.211 31.4946L125.616 40.0897C122.58 43.1256 117.389 40.9755 117.389 36.6821ZM73.3704 36.6821C73.3703 40.9755 68.1794 43.1255 65.1435 40.0896L56.5481 31.4941C53.6834 28.629 49.0382 28.629 46.1731 31.4941C43.308 34.3592 43.308 39.0041 46.1731 41.8692L54.7685 50.4646C57.8043 53.5004 55.6542 58.6911 51.361 58.6911C39.2252 58.6911 29.3516 48.8179 29.3516 36.6817C29.3516 24.5264 39.2058 14.6727 51.361 14.6727C63.4968 14.6727 73.3704 24.5463 73.3704 36.6821ZM95.3794 117.383C100.479 117.383 105.472 118.063 110.241 119.225C116.722 120.805 116.511 129.722 111.146 133.688C107.501 136.382 102.864 136.947 99.616 136.947H80.7068C75.7058 136.947 71.0898 138.625 67.3905 141.446C62.7817 144.961 55.4456 146.591 51.3471 142.493C48.6 139.746 48.209 135.366 51.0872 132.756C60.2114 124.485 76.6975 117.383 95.3794 117.383ZM176.08 195.639H66.0337C64.1037 195.639 62.2132 194.855 60.8475 193.488L16.8286 149.47C13.96 146.601 13.9596 141.966 16.8286 139.097C19.6889 136.237 24.3416 136.237 27.2019 139.097L66.9218 178.817C68.2976 180.192 70.1635 180.966 72.1093 180.966C73.5497 180.966 137.867 180.966 139.398 180.966C143.45 180.966 146.735 177.681 146.735 173.63C146.735 169.578 143.45 166.293 139.398 166.293C138.631 166.293 81.4876 166.293 80.7068 166.293C76.6614 166.293 73.3704 163.002 73.3704 158.957C73.3704 154.911 76.6618 151.621 80.7068 151.621H99.6169C107.437 151.621 114.44 149.5 119.869 145.487C132.166 136.398 149.007 134.707 163.076 139.905C172.09 143.236 176.081 153.021 176.081 162.631V195.638C176.081 195.638 176.081 195.639 176.08 195.639ZM210.317 200.529C210.317 205.932 205.938 210.311 200.535 210.311C195.133 210.311 190.753 205.932 190.753 200.529V146.729C190.753 141.327 195.133 136.947 200.535 136.947C205.938 136.947 210.317 141.327 210.317 146.729V200.529Z" fill="white"/>
</svg>
